HIERARCHY
ROOT reference
{
  OFFSET 0 0 0
  CHANNELS 6 Xposition Yposition Zposition Zrotation Xrotation Yrotation
  JOINT Hips
  {
    OFFSET 19.8941 91.4584 12.6699
    CHANNELS 3 Zrotation Xrotation Yrotation
    JOINT RightUpLeg
    {
      OFFSET -9.21136 -1.54315 -0.00338228
      CHANNELS 3 Zrotation Xrotation Yrotation
      JOINT RightLeg
      {
        OFFSET 0.100199 -41.8913 0.117885
        CHANNELS 3 Zrotation Xrotation Yrotation
        JOINT RightFoot
        {
          OFFSET -0.0312538 -39.9042 0.200326
          CHANNELS 3 Zrotation Xrotation Yrotation
          End Site
          {
            OFFSET 0 -7.69 17.5
          }
        }
      }
    }
    JOINT LeftUpLeg
    {
      OFFSET 9.2904 -1.6473 0.00344049
      CHANNELS 3 Zrotation Xrotation Yrotation
      JOINT LeftLeg
      {
        OFFSET 0.15381 -41.8817 -0.0541105
        CHANNELS 3 Zrotation Xrotation Yrotation
        JOINT LeftFoot
        {
          OFFSET 0.872932 -43.9846 -0.139608
          CHANNELS 3 Zrotation Xrotation Yrotation
          End Site
          {
            OFFSET 0 -7.69 17.5
          }
        }
      }
    }
    JOINT Spine
    {
      OFFSET 0.0768477 14.3139 0.027738
      CHANNELS 3 Zrotation Xrotation Yrotation
      JOINT Spine1
      {
        OFFSET -0.0133682 9.71866 0.00713354
        CHANNELS 3 Zrotation Xrotation Yrotation
        JOINT Spine2
        {
          OFFSET -0.0175262 10.1212 -0.00524987
          CHANNELS 3 Zrotation Xrotation Yrotation
          JOINT Spine3
          {
            OFFSET -0.00348171 9.71796 0.0104149
            CHANNELS 3 Zrotation Xrotation Yrotation
            JOINT Neck
            {
              OFFSET -0.0845439 10.3822 0.044921
              CHANNELS 3 Zrotation Xrotation Yrotation
              JOINT Head
              {
                OFFSET -0.0310878 9.44025 0.0694291
                CHANNELS 3 Zrotation Xrotation Yrotation
                End Site
                {
                  OFFSET 0 15.95 0
                }
              }
            }
            JOINT RightShoulder
            {
              OFFSET -3.20882 6.90619 -0.0326675
              CHANNELS 3 Zrotation Xrotation Yrotation
              JOINT RightArm
              {
                OFFSET -12.8514 -0.0142271 -0.0483735
                CHANNELS 3 Zrotation Xrotation Yrotation
                JOINT RightForeArm
                {
                  OFFSET -26.4475 -0.0994884 -0.035967
                  CHANNELS 3 Zrotation Xrotation Yrotation
                  JOINT RightHand
                  {
                    OFFSET -25.9226 -0.102631 -0.136889
                    CHANNELS 3 Zrotation Xrotation Yrotation
                    JOINT RightHandThumb1
                    {
                      OFFSET -2.48905 0.190105 3.12053
                      CHANNELS 3 Zrotation Xrotation Yrotation
                      JOINT RightHandThumb2
                      {
                        OFFSET -3.68274 0 0
                        CHANNELS 3 Zrotation Xrotation Yrotation
                        JOINT RightHandThumb3
                        {
                          OFFSET -2.55832 0 0
                          CHANNELS 3 Zrotation Xrotation Yrotation
                          End Site
                          {
                            OFFSET -2.194 0 0
                          }
                        }
                      }
                    }
                    JOINT RightInHandIndex
                    {
                      OFFSET -3.22368 0.508421 1.97842
                      CHANNELS 3 Zrotation Xrotation Yrotation
                      JOINT RightHandIndex1
                      {
                        OFFSET -5.21684 -0.091368 0.999158
                        CHANNELS 3 Zrotation Xrotation Yrotation
                        JOINT RightHandIndex2
                        {
                          OFFSET -3.61937 0 0
                          CHANNELS 3 Zrotation Xrotation Yrotation
                          JOINT RightHandIndex3
                          {
                            OFFSET -2.0521 0 0
                            CHANNELS 3 Zrotation Xrotation Yrotation
                            End Site
                            {
                              OFFSET -1.805 0 0
                            }
                          }
                        }
                      }
                    }
                    JOINT RightInHandMiddle
                    {
                      OFFSET -3.38211 0.517263 0.756737
                      CHANNELS 3 Zrotation Xrotation Yrotation
                      JOINT RightHandMiddle1
                      {
                        OFFSET -5.17411 -0.084 0.313895
                        CHANNELS 3 Zrotation Xrotation Yrotation
                        JOINT RightHandMiddle2
                        {
                          OFFSET -3.94947 0 0
                          CHANNELS 3 Zrotation Xrotation Yrotation
                          JOINT RightHandMiddle3
                          {
                            OFFSET -2.47579 0 0
                            CHANNELS 3 Zrotation Xrotation Yrotation
                            End Site
                            {
                              OFFSET -1.975 0 0
                            }
                          }
                        }
                      }
                    }
                    JOINT RightInHandRing
                    {
                      OFFSET -3.36516 0.537895 -0.128947
                      CHANNELS 3 Zrotation Xrotation Yrotation
                      JOINT RightHandRing1
                      {
                        OFFSET -4.63474 -0.022105 -0.478947
                        CHANNELS 3 Zrotation Xrotation Yrotation
                        JOINT RightHandRing2
                        {
                          OFFSET -3.44238 0 0
                          CHANNELS 3 Zrotation Xrotation Yrotation
                          JOINT RightHandRing3
                          {
                            OFFSET -2.3881 0 0
                            CHANNELS 3 Zrotation Xrotation Yrotation
                            End Site
                            {
                              OFFSET -1.857 0 0
                            }
                          }
                        }
                      }
                    }
                    JOINT RightInHandPinky
                    {
                      OFFSET -3.16105 0.469368 -1.20179
                      CHANNELS 3 Zrotation Xrotation Yrotation
                      JOINT RightHandPinky1
                      {
                        OFFSET -4.14105 -0.022105 -1.09053
                        CHANNELS 3 Zrotation Xrotation Yrotation
                        JOINT RightHandPinky2
                        {
                          OFFSET -2.75653 0 0
                          CHANNELS 3 Zrotation Xrotation Yrotation
                          JOINT RightHandPinky3
                          {
                            OFFSET -1.74189 0 0
                            CHANNELS 3 Zrotation Xrotation Yrotation
                            End Site
                            {
                              OFFSET -1.645 0 0
                            }
                          }
                        }
                      }
                    }
                  }
                }
              }
            }
            JOINT LeftShoulder
            {
              OFFSET 3.19355 6.9059 0.0487761
              CHANNELS 3 Zrotation Xrotation Yrotation
              JOINT LeftArm
              {
                OFFSET 12.7349 -0.00433124 -0.0458964
                CHANNELS 3 Zrotation Xrotation Yrotation
                JOINT LeftForeArm
                {
                  OFFSET 26.4064 -0.194468 0.00909971
                  CHANNELS 3 Zrotation Xrotation Yrotation
                  JOINT LeftHand
                  {
                    OFFSET 25.9027 0.0515579 -0.250056
                    CHANNELS 3 Zrotation Xrotation Yrotation
                    JOINT LeftHandThumb1
                    {
                      OFFSET 2.48905 0.190105 3.12053
                      CHANNELS 3 Zrotation Xrotation Yrotation
                      JOINT LeftHandThumb2
                      {
                        OFFSET 3.68274 0 0
                        CHANNELS 3 Zrotation Xrotation Yrotation
                        JOINT LeftHandThumb3
                        {
                          OFFSET 2.55832 0 0
                          CHANNELS 3 Zrotation Xrotation Yrotation
                          End Site
                          {
                            OFFSET 2.194 0 0
                          }
                        }
                      }
                    }
                    JOINT LeftInHandIndex
                    {
                      OFFSET 3.22368 0.508421 1.97842
                      CHANNELS 3 Zrotation Xrotation Yrotation
                      JOINT LeftHandIndex1
                      {
                        OFFSET 5.21684 -0.091368 0.999158
                        CHANNELS 3 Zrotation Xrotation Yrotation
                        JOINT LeftHandIndex2
                        {
                          OFFSET 3.61937 0 0
                          CHANNELS 3 Zrotation Xrotation Yrotation
                          JOINT LeftHandIndex3
                          {
                            OFFSET 2.0521 0 0
                            CHANNELS 3 Zrotation Xrotation Yrotation
                            End Site
                            {
                              OFFSET 1.805 0 0
                            }
                          }
                        }
                      }
                    }
                    JOINT LeftInHandMiddle
                    {
                      OFFSET 3.38211 0.517263 0.756737
                      CHANNELS 3 Zrotation Xrotation Yrotation
                      JOINT LeftHandMiddle1
                      {
                        OFFSET 5.17411 -0.084 0.313895
                        CHANNELS 3 Zrotation Xrotation Yrotation
                        JOINT LeftHandMiddle2
                        {
                          OFFSET 3.94947 0 0
                          CHANNELS 3 Zrotation Xrotation Yrotation
                          JOINT LeftHandMiddle3
                          {
                            OFFSET 2.47579 0 0
                            CHANNELS 3 Zrotation Xrotation Yrotation
                            End Site
                            {
                              OFFSET 1.975 0 0
                            }
                          }
                        }
                      }
                    }
                    JOINT LeftInHandRing
                    {
                      OFFSET 3.36516 0.537895 -0.128947
                      CHANNELS 3 Zrotation Xrotation Yrotation
                      JOINT LeftHandRing1
                      {
                        OFFSET 4.63474 -0.022105 -0.478947
                        CHANNELS 3 Zrotation Xrotation Yrotation
                        JOINT LeftHandRing2
                        {
                          OFFSET 3.44238 0 0
                          CHANNELS 3 Zrotation Xrotation Yrotation
                          JOINT LeftHandRing3
                          {
                            OFFSET 2.3881 0 0
                            CHANNELS 3 Zrotation Xrotation Yrotation
                            End Site
                            {
                              OFFSET 1.857 0 0
                            }
                          }
                        }
                      }
                    }
                    JOINT LeftInHandPinky
                    {
                      OFFSET 3.16105 0.469368 -1.20179
                      CHANNELS 3 Zrotation Xrotation Yrotation
                      JOINT LeftHandPinky1
                      {
                        OFFSET 4.14105 -0.022105 -1.09053
                        CHANNELS 3 Zrotation Xrotation Yrotation
                        JOINT LeftHandPinky2
                        {
                          OFFSET 2.75653 0 0
                          CHANNELS 3 Zrotation Xrotation Yrotation
                          JOINT LeftHandPinky3
                          {
                            OFFSET 1.74189 0 0
                            CHANNELS 3 Zrotation Xrotation Yrotation
                            End Site
                            {
                              OFFSET 1.645 0 0
                            }
                          }
                        }
                      }
                    }
                  }
                }
              }
            }
          }
        }
      }
    }
  }
}
MOTION
Frames: 2
Frame Time: 0.00416667
1.500000000000000000e+02 0.000000000000000000e+00 0.000000000000000000e+00 0.000000000000000000e+00 0.000000000000000000e+00 -0.000000000000000000e+00 2.773131920325313388e-02 5.059980725268758625e-03 2.692807326612121910e-02 5.350723835162322917e-02 5.372802525257110683e-03 7.998833416398490326e-02 -4.316220295481191377e-02 -2.923851236707727952e-02 -3.488127873520449618e-02 1.796552662448337376e-02 -2.071954188895812343e-02 -4.077737361556315471e-02 -2.524644228213901095e-02 -5.933380369612006183e-02 1.999212374836276465e-02 4.835968353527608787e-02 2.771756036100914491e-02 -1.107604633724338788e-01 -5.424218505496807355e-03 -1.636887732051067051e-02 5.106686999681488842e-02 2.880413903975719697e-02 -1.282904709879572128e-02 -3.509555768935573340e-03 7.184393342545051207e-03 1.524104013023266924e-02 4.822215606750837429e-03 1.376172594298189118e-02 -3.839696529966917654e-02 -7.149693188139507813e-03 1.680416430768881834e-03 -2.624473039540804655e-03 1.115010702815856167e-02 -9.368946570325424866e-04 -2.074290620156342413e-03 1.122057576323278773e-02 7.499227704782177040e-02 5.151988983145187190e-02 2.038860090429822081e-01 -3.337561668520531988e-02 9.556584420674339719e-02 -1.096013006976410686e-01 -5.546176689855200626e-02 -1.018674732987978476e-01 1.358572121283436740e-01 2.586432202043342787e+00 -2.754101281165266535e-02 -4.087758959948886428e+01 -2.040812131055125545e-01 -4.305395600117273847e-01 -1.215415236073991601e+00 0.000000000000000000e+00 0.000000000000000000e+00 0.000000000000000000e+00 -9.235433725647586558e-15 1.788525858677943444e-14 0.000000000000000000e+00 -2.243146881553319448e-14 2.413277211828940551e-14 0.000000000000000000e+00 -5.388308027967532760e-15 -2.213806077204359674e-15 6.539745262676735098e-15 0.000000000000000000e+00 0.000000000000000000e+00 0.000000000000000000e+00 0.000000000000000000e+00 -3.610255696481146385e-14 -1.250830979810518067e-13 0.000000000000000000e+00 -9.098343966940370163e-16 -4.276806243227551086e-14 -5.388308027967532760e-15 -2.213806077204359674e-15 6.539745262676735098e-15 0.000000000000000000e+00 -1.965926679188718824e-14 -9.901728241678163438e-14 0.000000000000000000e+00 -3.496126718543207009e-14 -1.456868535479748320e-13 0.000000000000000000e+00 -7.779263167934865824e-15 -3.330682991114674828e-14 -5.388308027967532760e-15 -2.213806077204359674e-15 6.539745262676735098e-15 0.000000000000000000e+00 0.000000000000000000e+00 0.000000000000000000e+00 0.000000000000000000e+00 -3.427547829312807812e-14 -1.515313107736243943e-13 0.000000000000000000e+00 -1.148204857507659991e-14 -4.236212626328573921e-14 -5.388308027967532760e-15 -2.213806077204359674e-15 6.539745262676735098e-15 0.000000000000000000e+00 0.000000000000000000e+00 0.000000000000000000e+00 0.000000000000000000e+00 -3.216481366932392556e-14 -1.455326149379737243e-13 0.000000000000000000e+00 -5.155978176488722671e-15 -3.371338056839082262e-14 8.017767918986529185e-02 1.874250353615113662e-01 3.317579180935587013e-01 -1.412347406037544606e-01 -1.382603461066096162e-01 3.234397677835645912e-02 1.553071895368782207e-02 -2.741453100760516959e-01 8.378151816059711821e-02 -1.455064766324143388e-01 2.500361216648460116e-01 9.209265748091120807e-02 0.000000000000000000e+00 0.000000000000000000e+00 0.000000000000000000e+00 -5.119859666635038762e-17 -2.662916003930963843e-14 0.000000000000000000e+00 -4.427918319603018254e-15 -2.176189490925157748e-14 0.000000000000000000e+00 8.539798534422725703e-15 1.231149440206231670e-14 3.877155395599080807e-15 0.000000000000000000e+00 0.000000000000000000e+00 0.000000000000000000e+00 0.000000000000000000e+00 -3.828441651242644506e-15 -3.578651492908813289e-14 0.000000000000000000e+00 -2.285691872730398985e-15 -1.858548086255535620e-14 8.539798534422725703e-15 1.231149440206231670e-14 3.877155395599080807e-15 0.000000000000000000e+00 9.284423351565459453e-15 -3.559621433075342473e-14 0.000000000000000000e+00 6.453969636747771328e-16 -3.076149748680316945e-14 0.000000000000000000e+00 -1.218870721496876280e-15 3.196522042701642067e-15 8.539798534422725703e-15 1.231149440206231670e-14 3.877155395599080807e-15 0.000000000000000000e+00 0.000000000000000000e+00 0.000000000000000000e+00 0.000000000000000000e+00 4.628471589069532014e-15 -2.415094904572281617e-14 0.000000000000000000e+00 -9.776652784013727747e-15 5.456932170007840202e-15 8.539798534422725703e-15 1.231149440206231670e-14 3.877155395599080807e-15 0.000000000000000000e+00 0.000000000000000000e+00 0.000000000000000000e+00 0.000000000000000000e+00 3.774367783141047935e-15 -1.711764999705765058e-14 0.000000000000000000e+00 5.993844210396226313e-15 9.828509228826021319e-15
1.500000000000000000e+02 0.000000000000000000e+00 0.000000000000000000e+00 0.000000000000000000e+00 0.000000000000000000e+00 -0.000000000000000000e+00 3.006469425278053900e-02 6.598747437989290962e-03 2.972279479837242749e-02 5.970198289472538472e-02 7.168654851094477011e-03 7.836939396830827631e-02 -4.405681328502518423e-02 -2.940770628351244836e-02 -2.660244099828351985e-02 1.287219164429316207e-02 -2.406868861233510057e-02 -4.776410238284305165e-02 -2.666257943587664603e-02 -5.827428893732952003e-02 1.348798995700911489e-02 5.077130604722052132e-02 2.663048110140068050e-02 -1.118776031599002796e-01 -7.757136097127092372e-03 -1.642345837329056008e-02 5.587569862095537188e-02 2.989862116584453278e-02 -1.577908759144566048e-02 -9.306450244041690467e-03 7.051593555924363932e-03 2.201640915702334292e-02 5.015639859878687039e-03 1.421895102241074564e-02 -4.783757980032073837e-02 -1.127245973268675011e-02 1.433308451085711643e-03 -2.690556805143139423e-03 1.346086682329138834e-02 -7.630412304912764570e-04 -2.036270585994062483e-03 1.357276946995351723e-02 9.358216069021484118e-02 5.886615599751130606e-02 2.337581008399731708e-01 -3.880805646976803053e-02 1.132678790582823530e-01 -1.126327956063512686e-01 -5.758886422635722119e-02 -1.120927484216949627e-01 1.729962813040998026e-01 2.653175460481858483e+00 -5.103115313157358807e-02 -5.081133276896426310e+01 -1.868258005828012658e-01 -3.856207996575714558e-01 -1.218991439792221465e+00 0.000000000000000000e+00 0.000000000000000000e+00 0.000000000000000000e+00 -8.204626531810649557e-15 9.982276231912663529e-15 0.000000000000000000e+00 -1.123713185617731268e-14 1.319239961406650739e-14 0.000000000000000000e+00 -6.443934938539012710e-15 -7.921215162903499043e-16 6.040548432846286072e-15 0.000000000000000000e+00 0.000000000000000000e+00 0.000000000000000000e+00 0.000000000000000000e+00 -1.699682779960417813e-14 -8.704620308599112813e-14 0.000000000000000000e+00 -1.064338362387017284e-14 -3.510095798592277822e-14 -6.443934938539012710e-15 -7.921215162903499043e-16 6.040548432846286072e-15 0.000000000000000000e+00 -1.419578891283691704e-14 -9.442134230133831638e-14 0.000000000000000000e+00 -2.539314882360437241e-14 -1.040713545692400738e-13 0.000000000000000000e+00 -7.712757726307654428e-15 -2.972852066495409817e-14 -6.443934938539012710e-15 -7.921215162903499043e-16 6.040548432846286072e-15 0.000000000000000000e+00 0.000000000000000000e+00 0.000000000000000000e+00 0.000000000000000000e+00 -1.684075303903321389e-14 -9.115428953133495228e-14 0.000000000000000000e+00 -4.345108892020363812e-15 -3.211879743040397574e-14 -6.443934938539012710e-15 -7.921215162903499043e-16 6.040548432846286072e-15 0.000000000000000000e+00 0.000000000000000000e+00 0.000000000000000000e+00 0.000000000000000000e+00 -2.117387902643202335e-14 -6.434709533008047876e-14 0.000000000000000000e+00 -4.164823623916371591e-15 -2.212947481441291410e-14 9.514983013637551279e-02 1.998851769021701141e-01 3.805170513349245831e-01 -1.551932725372398847e-01 -1.573276509515565413e-01 3.416539649010318092e-02 3.572794669795051684e-03 -3.012450732910255113e-01 1.136189553768903598e-01 -1.399710358277037880e-01 2.915916642076705756e-01 6.801029520345977519e-02 0.000000000000000000e+00 0.000000000000000000e+00 0.000000000000000000e+00 1.458188911837978397e-15 -2.107318003632997983e-14 0.000000000000000000e+00 6.250060941473222063e-16 -1.148072507398548069e-14 0.000000000000000000e+00 -4.840006978528140249e-15 1.245217889199560562e-14 6.174963268607183106e-16 0.000000000000000000e+00 0.000000000000000000e+00 0.000000000000000000e+00 0.000000000000000000e+00 2.610419043756255173e-15 -1.637798374898718509e-14 0.000000000000000000e+00 -6.562663002490328448e-15 -9.985619267733993966e-15 -4.840006978528140249e-15 1.245217889199560562e-14 6.174963268607183106e-16 0.000000000000000000e+00 3.271545073264207997e-15 -7.931578540677601996e-15 0.000000000000000000e+00 -7.632905411470137407e-15 -8.085352371515787448e-15 0.000000000000000000e+00 -1.089876029721011015e-14 1.441502922655081022e-14 -4.840006978528140249e-15 1.245217889199560562e-14 6.174963268607183106e-16 0.000000000000000000e+00 0.000000000000000000e+00 0.000000000000000000e+00 0.000000000000000000e+00 -5.182330393646193861e-15 -6.345692286498128070e-16 0.000000000000000000e+00 -4.278624498246150076e-15 1.348369610864736238e-14 -4.840006978528140249e-15 1.245217889199560562e-14 6.174963268607183106e-16 0.000000000000000000e+00 0.000000000000000000e+00 0.000000000000000000e+00 0.000000000000000000e+00 -3.515754659254271183e-15 6.211809422629818858e-15 0.000000000000000000e+00 1.317932642620653689e-14 1.337700125434719868e-14
